<svg xmlns="http://www.w3.org/2000/svg" width="119" height="109" viewBox="0 0 119 109" version="1.1"><path d="M 47.176 21.224 C 45.372 23.028, 45.683 29.941, 47.601 30.677 C 49.636 31.458, 50.965 29.375, 50.985 25.372 C 51.003 21.661, 48.962 19.438, 47.176 21.224 M 66.176 21.224 C 64.800 22.600, 64.640 27.883, 65.914 29.896 C 67.582 32.529, 70 30.314, 70 26.154 C 70 21.767, 68.093 19.307, 66.176 21.224 M 35.571 39.368 L 32 42.736 32 61.321 C 32 73.236, 32.414 80.815, 33.154 82.439 C 35.363 87.287, 38.195 88.186, 53.007 88.745 C 71.829 89.455, 77.074 88.704, 80.945 84.745 L 84 81.620 84 62.210 L 84 42.800 80.600 39.400 L 77.200 36 58.171 36 L 39.142 36 35.571 39.368 M 40.364 41.170 C 36.664 42.961, 36 46.296, 36 63.093 C 36 78.745, 36.053 79.144, 38.455 81.545 C 40.869 83.960, 41.187 84, 58 84 C 74.813 84, 75.131 83.960, 77.545 81.545 C 79.947 79.144, 80 78.745, 80 63.093 C 80 45.992, 79.353 42.937, 75.343 41.110 C 72.248 39.700, 43.298 39.749, 40.364 41.170 M 45.696 49.637 C 45.313 50.020, 45 55.835, 45 62.560 C 45 72.786, 45.259 74.885, 46.582 75.393 C 48.935 76.296, 68.297 76.098, 69.782 75.156 C 70.739 74.549, 70.993 71.186, 70.782 61.921 L 70.500 49.500 58.446 49.221 C 51.816 49.067, 46.079 49.255, 45.696 49.637 M 17.224 51.176 C 15.322 53.078, 17.754 55, 22.063 55 C 26.314 55, 27.791 53.658, 25.964 51.456 C 24.513 49.709, 18.872 49.528, 17.224 51.176 M 90.036 51.456 C 88.143 53.738, 89.732 55, 94.500 55 C 96.910 55, 99.172 54.530, 99.527 53.956 C 100.638 52.158, 97.896 50, 94.500 50 C 92.710 50, 90.701 50.655, 90.036 51.456 M 49 62.500 L 49 71 58 71 L 67 71 67 62.500 L 67 54 58 54 L 49 54 49 62.500 M 16.478 71.036 C 15.261 73.004, 17.565 74.140, 22.114 73.814 C 25.206 73.593, 26.500 73.058, 26.500 72 C 26.500 70.137, 17.564 69.278, 16.478 71.036 M 89.478 71.036 C 88.261 73.004, 90.565 74.140, 95.114 73.814 C 98.206 73.593, 99.500 73.058, 99.500 72 C 99.500 70.137, 90.564 69.278, 89.478 71.036 M 47.176 94.224 C 45.372 96.028, 45.683 102.941, 47.601 103.677 C 49.636 104.458, 50.965 102.375, 50.985 98.372 C 51.003 94.661, 48.962 92.438, 47.176 94.224 M 66.176 94.224 C 64.800 95.600, 64.640 100.883, 65.914 102.896 C 67.582 105.529, 70 103.314, 70 99.154 C 70 94.767, 68.093 92.307, 66.176 94.224" stroke="none" fill="#ec808e" fill-rule="evenodd"/></svg>